<svg width="201" height="184" viewBox="0 0 201 184" fill="none" xmlns="http://www.w3.org/2000/svg">
<path fill-rule="evenodd" clip-rule="evenodd" d="M152.325 43.6238C147.331 4.12049 94.446 -14.0683 63.8594 25.9294C63.8594 25.9294 66.6577 13.5151 78.5593 5.4979C69.3674 1.48929 48.5749 -5.34477 34.0697 7.19317C14.9775 23.722 25.9228 45.2838 25.9228 45.2838C25.9228 45.2838 -8.63108 58.7223 2.04855 89.5374C3.76651 94.4819 7.04301 98.8084 10.5498 102.27C14.3222 105.978 20.2376 105.819 24.134 102.234C49.0177 79.3304 111.041 61.8833 149.084 102.376C121.579 82.562 61.3444 82.8623 33.0602 106.384C29.2524 109.563 27.375 114.49 27.7824 119.434C28.2075 124.732 28.7388 131.548 29.0222 134.921C30.1379 147.706 32.2278 157.595 34.0343 164.306C35.2918 168.986 40.7644 170.787 44.7317 167.979C65.7367 153.163 112.316 144.598 132.241 152.28C109.341 171.634 76.93 175.131 60.9371 174.813C81.6233 179.228 121.154 169.074 140.671 154.223C142.85 154.788 144.886 155.335 146.711 155.847C116.496 183.713 70.3769 183.413 49.3896 180.411C76.3809 189.7 135.075 180.181 154.822 160.809C155.938 159.714 156.345 158.125 156.044 156.589C155.052 151.556 153.033 139.495 153.919 129.147C154.185 126.127 157.178 123.99 160.118 124.785C214.596 139.265 217.2 57.2213 152.325 43.6062V43.6238Z" fill="#EFF8FF"/>
</svg>
