<svg width="201" height="184" viewBox="0 0 201 184" fill="none" xmlns="http://www.w3.org/2000/svg">
<path fill-rule="evenodd" clip-rule="evenodd" d="M156.352 72.6685C157.034 82.7396 160.833 91.1873 160.833 91.1873C160.833 91.1873 153.218 84.1526 149.981 72.5783C119.045 -38.309 -3.65904 -3.09025 42.5915 52.6616C49.3715 60.8237 66.5429 64.7319 66.5429 64.7319C66.5429 64.7319 48.5879 65.5436 33.8524 55.1418C-10.2857 60.8838 -5.6351 93.0512 15.9485 105.663C23.8869 110.292 34.125 111.164 42.9322 107.993C82.1983 93.893 121.873 102.1 144.104 120.799C144.104 120.799 93.68 97.0045 41.1435 119.717C37.5491 121.265 35.4708 124.632 35.6241 128.15C36.3736 145.316 39.4911 167.728 43.7669 176.055C43.7669 176.055 61.0577 162.707 89.1487 156.033C103.424 152.636 121.038 154.425 134.939 156.995C112.913 173.47 81.7384 176.446 66.3556 176.175C86.2527 179.933 124.275 171.29 143.048 158.649C145.16 159.13 147.102 159.596 148.857 160.032C119.795 183.751 75.4353 183.496 55.2486 180.94C80.2563 188.561 133.525 181.331 154.393 166.059C156.864 164.255 157.971 161.399 157.409 158.604C156.182 152.456 154.393 140.626 156.693 132.178C216.044 170.343 215.601 74.4122 156.369 72.6385L156.352 72.6685Z" fill="#EFF8FF"/>
</svg>
