<svg width="201" height="202" viewBox="0 0 201 202" fill="none" xmlns="http://www.w3.org/2000/svg">
<path fill-rule="evenodd" clip-rule="evenodd" d="M193.008 65.2958C193.008 65.2958 195.591 51.9966 184.698 44.2489C173.804 36.5012 162.929 37.2333 162.929 37.2333C162.929 37.2333 162.026 23.6138 144.827 17.0863C127.647 10.5587 115.941 15.9424 115.941 15.9424C115.941 15.9424 110.377 1.77392 91.155 0.218279C53.597 -2.81674 61.0399 26.8014 61.0399 26.8014C61.0399 26.8014 52.495 19.3282 55.9997 8.3015C49.6949 0.00476488 15.1899 4.77843 16.8158 22.714C16.8158 22.714 -5.5311 25.7643 1.29763 45.8503C7.02436 62.6878 28.8112 58.0056 28.8112 58.0056C24.0058 96.1187 23.8071 132.386 30.7081 165.101C31.1598 167.251 34.1405 168.303 36.2542 167.053C53.8499 156.667 100.766 144.694 136.987 160.998C136.987 160.998 81.0203 149.62 37.6272 177.408C35.4593 178.796 34.4657 181.237 35.0438 183.478C35.4593 185.08 35.8387 186.498 36.2722 188.069C36.9587 190.54 40.3731 191.592 42.8481 190.128C59.4502 180.321 97.0262 167.312 134.494 174.129C111.135 190.845 78.0756 193.865 61.7625 193.59C82.8629 197.403 123.185 188.633 143.093 175.822C145.333 176.295 147.393 176.783 149.253 177.225C118.434 201.292 71.3914 201.033 49.9839 198.44C76.7026 206.233 141.828 201.231 157.04 183.433C158.647 181.557 158.954 179.132 158.286 176.89C152.812 158.359 151.801 121.695 155.847 101.807C156.371 99.1995 155.974 96.5305 154.583 94.1666C150.789 87.7 144.647 81.5995 137.168 76.0937C128.695 109.418 129.887 142.895 129.887 142.895C125.552 122.717 127.647 82.179 128.388 70.2982C122.047 66.5159 115.092 63.2216 107.938 60.3848C96.141 102.311 97.6946 135.604 97.6946 135.604C92.1847 109.982 95.1474 66.3939 95.9423 56.1602C83.9649 52.5151 72.0057 50.4715 61.8168 50.624C115.056 44.6607 149.326 68.9256 162.712 88.4168C169.469 104.629 188.961 99.0317 196.639 90.796C208.255 78.3357 192.99 65.2805 192.99 65.2805L193.008 65.2958Z" fill="#EFF8FF"/>
</svg>
