<svg width="63" height="53" viewBox="0 0 63 53" fill="none" xmlns="http://www.w3.org/2000/svg">
<path d="M38.5164 48.3434L52.3164 19.8434L56.5164 19.2434C56.1164 20.6434 55.3164 21.7434 54.1164 22.5434C52.9164 23.5434 51.3164 24.0434 49.3164 24.0434C46.3164 24.0434 43.7164 22.9434 41.5164 20.7434C39.1164 18.7434 37.9164 16.0434 37.9164 12.6434C37.9164 9.24336 39.2164 6.34337 41.8164 3.94336C44.2164 1.54337 47.1164 0.343372 50.5164 0.343372C53.7164 0.343372 56.5164 1.54337 58.9164 3.94336C61.3164 6.34337 62.5164 9.24337 62.5164 12.6434C62.5164 14.0434 62.3164 15.6434 61.9164 17.4434C61.5164 19.4434 60.6164 22.0434 59.2164 25.2434L45.7164 52.2434L38.5164 48.3434ZM1.3164 48.3434L15.1164 19.8434L19.3164 19.2434C18.9164 20.6434 18.1164 21.7434 16.9164 22.5434C15.7164 23.5434 14.1164 24.0434 12.1164 24.0434C9.1164 24.0434 6.5164 22.9434 4.3164 20.7434C1.9164 18.7434 0.7164 16.0434 0.7164 12.6434C0.7164 9.24336 2.0164 6.34336 4.6164 3.94336C7.0164 1.54336 9.9164 0.343368 13.3164 0.343369C16.5164 0.343369 19.3164 1.54337 21.7164 3.94336C24.1164 6.34336 25.3164 9.24336 25.3164 12.6434C25.3164 14.0434 25.1164 15.6434 24.7164 17.4434C24.3164 19.4434 23.4164 22.0434 22.0164 25.2434L8.51639 52.2434L1.3164 48.3434Z" fill="#405773"/>
</svg>
