<svg width="52" height="52" viewBox="0 0 52 52" fill="none" xmlns="http://www.w3.org/2000/svg">
<rect width="52" height="52" fill="#232020"/>
<path d="M44.8967 30.3751C44.7891 31.2162 44.6712 32.1035 44.5584 32.9959C44.5482 33.0831 44.5277 33.1702 44.5328 33.2574C44.6097 34.2678 44.2867 35.2166 44.0253 36.1603C43.6408 37.545 43.2 38.9246 42.4464 40.1657C41.8569 41.1351 41.2572 42.1095 40.5856 43.0275C39.7296 44.1969 38.6889 45.2226 37.5509 46.0996C36.3463 47.0279 35.0596 47.8741 33.6345 48.4332C32.5837 48.8435 31.4713 49.0999 30.3794 49.3973C29.0979 49.7461 27.7958 49.6025 26.5245 49.8384C26.017 49.9307 25.4736 49.823 24.9456 49.7974C24.2639 49.7615 23.577 49.7615 22.9054 49.6538C22.1109 49.5256 21.3317 49.3102 20.5474 49.1153C19.353 48.8178 18.2252 48.3357 17.1487 47.7459C16.7489 47.5254 16.3747 47.2536 15.9953 46.992C15.4263 46.592 14.8061 46.2842 14.2986 45.7919C13.6117 45.1252 12.853 44.5302 12.1148 43.9097C11.3203 43.2378 10.782 42.3557 10.1566 41.5402C9.36718 40.5094 8.79817 39.3554 8.28555 38.1707C8.09588 37.7296 7.98311 37.2578 7.83445 36.8013C7.77806 36.6372 7.73705 36.4629 7.65503 36.309C7.47562 35.9756 7.34233 35.632 7.36796 35.2422C7.37309 35.1345 7.37309 35.0063 7.32183 34.9191C6.963 34.3345 7.08603 33.6831 7.04502 33.0523C6.94249 31.4009 7.04502 29.7546 7.06039 28.1031C7.06039 27.7646 7.20393 27.4313 7.27569 27.0979C7.30645 26.9492 7.36797 26.7953 7.36284 26.6466C7.32696 25.708 7.83445 24.9336 8.07538 24.0771C8.31119 23.2514 8.67002 22.4821 9.02372 21.7077C9.16726 21.3948 9.28003 21.0563 9.4697 20.7743C10.3001 19.5383 11.0793 18.2715 12.1609 17.2252C13.0478 16.3739 14.0115 15.6251 15.0521 14.9737C15.7749 14.5224 16.4823 14.0506 17.2307 13.6454C18.0663 13.1941 18.9583 12.871 19.8759 12.6197C19.9579 12.594 20.0706 12.6197 20.1322 12.5684C20.2757 12.4607 20.4038 12.3222 20.532 12.194C20.4141 12.0812 20.3167 11.9273 20.1783 11.8606C19.8092 11.676 19.3889 11.5734 19.0454 11.3478C18.5174 10.9939 18.015 10.5733 18.0612 9.83481C18.0919 9.31169 18.4662 9.045 18.9941 9.08603C19.7169 9.14244 20.3526 9.56299 21.0446 9.64505C22.0186 9.76301 22.8695 10.3579 23.8845 10.2964C24.4535 10.2605 25.0328 10.281 25.6018 10.281C26.2169 10.281 26.8372 10.281 27.4524 10.281C28.0214 10.281 28.5852 10.3426 29.1081 9.9938C29.3285 9.8502 29.6566 9.83994 29.9386 9.82455C30.2512 9.80917 30.5434 9.82455 30.7946 9.56812C30.8818 9.47581 31.0817 9.49632 31.2252 9.46042C31.4303 9.404 31.6456 9.3681 31.8301 9.27066C32.3222 9.0091 32.8553 9.06551 33.2039 9.44503C33.5628 9.83994 33.5884 10.44 33.3065 10.9016C33.0091 11.3888 32.4606 11.5016 32.0557 11.8145C32.0044 11.8555 31.9224 11.8504 31.8762 11.8914C31.7737 11.9837 31.5789 12.1325 31.6046 12.1837C31.6661 12.3273 31.7942 12.4812 31.9326 12.5376C32.394 12.7274 32.8656 12.9582 33.3526 13.0248C34.1113 13.1274 34.6546 13.6249 35.2903 13.9377C35.8132 14.1993 36.295 14.5532 36.782 14.8814C37.8739 15.6097 38.935 16.3892 39.8218 17.3534C41.1546 18.8049 42.3337 20.3794 43.2 22.1641C43.405 22.5898 43.5178 23.0668 43.6665 23.5232C43.9023 24.2566 44.1227 24.99 44.3534 25.7234C44.3841 25.826 44.4405 25.9286 44.4508 26.0363C44.5994 27.4569 44.743 28.8776 44.8967 30.3649V30.3751ZM25.5967 14.1121C24.8431 14.1788 23.8589 14.1583 22.9259 14.3839C22.2493 14.5481 21.547 14.6352 20.8806 14.9943C20.045 15.4404 19.1889 15.8046 18.3995 16.3739C17.6613 16.9072 16.9949 17.4868 16.4362 18.1945C15.6621 19.1741 14.9137 20.1691 14.4216 21.3333C14.1448 21.9949 13.8372 22.6411 13.586 23.3078C13.3605 23.913 13.1554 24.5387 13.0119 25.1695C12.8684 25.7901 12.812 26.4261 12.7197 27.0569C12.6582 27.4928 12.5608 27.9236 12.5403 28.3647C12.4173 30.529 12.6121 32.6676 13.0324 34.7909C13.1247 35.2576 13.2528 35.7243 13.4271 36.1705C13.7347 36.9603 14.0935 37.7245 14.4165 38.5041C14.9957 39.8837 15.8262 41.1146 16.7232 42.2993C17.2359 42.9711 17.9177 43.5148 18.4815 44.1507C19.2043 44.9713 20.1117 45.5252 21.0395 46.074C22.0699 46.6792 23.2386 46.8894 24.3408 47.2997C24.4433 47.3356 24.5561 47.3408 24.6637 47.351C25.8684 47.4844 27.0679 47.51 28.2828 47.4023C29.5438 47.2895 30.7485 46.9407 31.8865 46.4791C33.0706 46.0022 34.142 45.2893 35.075 44.3456C36.5565 42.8378 37.4843 41.0428 38.1199 39.0733C38.3455 38.381 38.6941 37.6937 38.6018 36.9193C38.5915 36.8372 38.6531 36.7552 38.6684 36.668C38.7556 36.2218 38.8684 35.7756 38.9248 35.3243C39.017 34.6063 39.0273 33.8729 39.1452 33.16C39.3451 31.9753 39.2016 30.7905 39.1657 29.611C39.1657 29.5443 39.1349 29.4827 39.1298 29.4161C39.0632 28.8314 38.9965 28.2416 38.935 27.6569C38.8991 27.3287 38.9094 26.9902 38.8376 26.6774C38.6531 25.8978 38.4378 25.1285 38.2225 24.3592C38.0584 23.7694 37.92 23.1642 37.6791 22.6103C37.0896 21.2461 36.4232 19.9126 35.4748 18.7587C34.9315 18.0971 34.424 17.374 33.7627 16.8611C33.0348 16.2969 32.3479 15.6148 31.4149 15.3327C31.0868 15.2353 30.7639 15.0917 30.4614 14.9224C29.7335 14.5275 28.9236 14.4198 28.129 14.2968C27.3703 14.1788 26.5912 14.1891 25.6069 14.1326L25.5967 14.1121Z" fill="#FBFBFD"/>
<path d="M25.7914 9.79376C25.0225 9.79376 24.2536 9.79889 23.4846 9.79376C23.0694 9.79376 22.6644 9.79376 22.28 9.54758C22.1159 9.43988 21.8545 9.48091 21.6392 9.45527C20.9831 9.38347 20.5678 8.97318 20.5371 8.31671C20.5012 7.59869 20.4448 6.87042 20.5012 6.15241C20.5422 5.66006 20.7011 5.15745 20.9113 4.71125C21.06 4.38815 21.3368 4.10094 21.6187 3.87528C22.3876 3.2701 23.3103 3.08034 24.2587 3.02392C25.53 2.94186 26.7962 3.08547 28.0572 3.2342C28.6159 3.30087 29.2106 3.39319 29.6976 3.64449C30.4152 4.01375 30.8817 4.65997 31.0047 5.50107C31.1432 6.46013 31.0765 7.42432 31.0458 8.38338C31.0253 9.11165 30.7382 9.41937 30.0103 9.46553C29.6361 9.49117 29.2721 9.49117 28.944 9.72709C28.8364 9.80402 28.6467 9.7835 28.4929 9.7835C27.5907 9.7835 26.6885 9.7835 25.7914 9.7835C25.7914 9.7835 25.7914 9.78863 25.7914 9.79376Z" fill="#FBFBFD"/>
</svg>
