<svg width="43" height="44" viewBox="0 0 43 44" fill="none" xmlns="http://www.w3.org/2000/svg">
<circle cx="21.5" cy="22" r="21" fill="white" stroke="#405773"/>
<path d="M28.046 15.243H28.0601M15.8691 33.2621H27.131C30.2408 33.2621 32.7619 30.741 32.7619 27.6311V16.3692C32.7619 13.2593 30.2408 10.7383 27.131 10.7383H15.8691C12.7592 10.7383 10.2381 13.2593 10.2381 16.3692V27.6311C10.2381 30.741 12.7592 33.2621 15.8691 33.2621ZM26.779 22.0002C26.779 24.9157 24.4155 27.2792 21.5 27.2792C18.5845 27.2792 16.221 24.9157 16.221 22.0002C16.221 19.0847 18.5845 16.7212 21.5 16.7212C24.4155 16.7212 26.779 19.0847 26.779 22.0002Z" stroke="#405773" stroke-width="3" stroke-linecap="round" stroke-linejoin="round"/>
</svg>
