<svg width="43" height="43" viewBox="0 0 43 43" fill="none" xmlns="http://www.w3.org/2000/svg">
<circle cx="21.5" cy="21.5" r="21" fill="#405773" stroke="#405773"/>
<path d="M10.2381 15.8692C10.2381 12.7593 12.7592 10.2383 15.8691 10.2383H27.131C30.2408 10.2383 32.7619 12.7593 32.7619 15.8692V27.1311C32.7619 30.241 30.2408 32.7621 27.131 32.7621H15.8691C12.7592 32.7621 10.2381 30.241 10.2381 27.1311V15.8692Z" fill="#FBFBFD"/>
<path d="M26.779 21.5002C26.779 24.4157 24.4155 26.7792 21.5 26.7792C18.5845 26.7792 16.221 24.4157 16.221 21.5002C16.221 18.5847 18.5845 16.2212 21.5 16.2212C24.4155 16.2212 26.779 18.5847 26.779 21.5002Z" fill="#FBFBFD"/>
<path d="M28.046 14.743H28.0601M15.8691 32.7621H27.131C30.2408 32.7621 32.7619 30.241 32.7619 27.1311V15.8692C32.7619 12.7593 30.2408 10.2383 27.131 10.2383H15.8691C12.7592 10.2383 10.2381 12.7593 10.2381 15.8692V27.1311C10.2381 30.241 12.7592 32.7621 15.8691 32.7621ZM26.779 21.5002C26.779 24.4157 24.4155 26.7792 21.5 26.7792C18.5845 26.7792 16.221 24.4157 16.221 21.5002C16.221 18.5847 18.5845 16.2212 21.5 16.2212C24.4155 16.2212 26.779 18.5847 26.779 21.5002Z" stroke="#405773" stroke-width="3" stroke-linecap="round" stroke-linejoin="round"/>
</svg>
