<svg width="241" height="95" viewBox="0 0 241 95" fill="none" xmlns="http://www.w3.org/2000/svg">
<path d="M46.7622 9.34268C49.3201 9.31191 51.873 9.27601 54.4309 9.24524C54.6924 9.24524 54.9589 9.27601 55.2255 9.2914C55.6048 9.31191 55.8304 9.5427 55.9637 9.86068C56.1021 10.1992 55.9278 10.5018 55.6766 10.671C55.3383 10.9018 54.9538 11.1069 54.5591 11.1941C53.7492 11.3788 52.9033 11.4249 52.0985 11.6301C51.2732 11.8352 50.4223 12.0609 49.6892 12.4712C49.1766 12.7635 48.6845 13.2815 48.6589 13.9944C48.6178 15.0252 48.5717 16.0612 48.5615 17.0972C48.5461 18.8153 48.5615 20.5334 48.5615 22.2464C48.5615 23.8773 48.5615 25.5031 48.5615 27.134C48.5615 28.8726 48.5563 30.6113 48.5563 32.3499C48.5563 33.9346 48.5666 35.5194 48.5666 37.1042C48.5666 39.1966 48.5563 41.2891 48.5615 43.3765C48.5615 44.1048 48.5871 44.8279 48.6127 45.5562C48.623 45.8998 48.7614 46.146 49.1458 46.187C49.5149 46.2281 49.884 46.3101 50.2531 46.3204C51.0887 46.3409 51.9242 46.2999 52.7444 46.5512C52.9905 46.6281 53.2673 46.6127 53.5339 46.6332C54.8257 46.7409 56.1226 46.8486 57.4144 46.9614C58.7728 47.0794 60.1313 47.2076 61.4897 47.3205C62.4329 47.4025 63.3813 47.4282 64.3142 47.5615C65.4522 47.7205 66.5851 47.8231 67.7283 47.8743C68.6407 47.9205 69.5429 48.1462 70.4554 48.2795C70.6502 48.3103 70.8501 48.3052 71.05 48.3052C71.6908 48.3103 72.3316 48.2795 72.9672 48.3308C73.8438 48.3975 74.7101 48.5821 75.5867 48.6026C77.1092 48.6437 78.6111 48.7924 80.1182 49.0027C80.7693 49.095 81.4408 49.0078 82.097 49.0539C82.8402 49.1052 83.5835 49.2181 84.3217 49.3053C84.819 49.3617 85.3213 49.4437 85.8186 49.4745C86.326 49.5053 86.8335 49.454 87.341 49.4899C87.8639 49.5258 88.3868 49.613 88.9096 49.6796C89.2172 49.7207 89.5197 49.7873 89.8221 49.7976C90.4629 49.8232 91.1036 49.8438 91.7393 49.8181C93.0208 49.7668 94.2665 50.0438 95.5173 50.2438C95.7326 50.2797 95.9581 50.2746 96.1734 50.2797C97.2756 50.3002 98.3931 50.2028 99.4747 50.3566C101.689 50.6746 103.919 50.4695 106.123 50.6643C109.635 50.9772 113.156 50.9926 116.673 51.1464C118.457 51.2234 120.241 51.3003 122.025 51.3054C123.588 51.3054 125.152 51.2234 126.715 51.1464C128.653 51.049 130.591 50.9875 132.518 50.7874C133.569 50.6746 134.64 50.7361 135.666 50.5413C136.558 50.372 137.444 50.3361 138.336 50.2694C138.875 50.2284 139.392 50.013 139.931 49.9104C140.228 49.8489 140.541 49.8489 140.848 49.8335C141.499 49.8027 142.176 49.9412 142.786 49.5771C143.919 49.536 145.062 49.2693 146.174 49.7361C146.395 49.8284 146.651 49.8386 146.861 49.9412C147.271 50.1412 147.328 50.572 146.959 50.8285C146.548 51.1105 146.138 51.4131 145.6 51.4593C145.303 51.4849 145.016 51.6798 144.718 51.7055C143.924 51.767 143.181 52.0286 142.427 52.2491C142.304 52.285 142.166 52.2645 142.032 52.2696C141.878 52.2696 141.72 52.2542 141.571 52.285C140.72 52.4491 139.874 52.6389 139.023 52.7927C138.372 52.9107 137.716 52.9825 137.06 53.0697C135.358 53.2954 133.661 53.5313 131.959 53.7467C130.565 53.921 129.16 54.0698 127.761 54.2134C127.346 54.2544 126.925 54.239 126.505 54.2544C125.849 54.2852 125.193 54.2801 124.547 54.4903C124.183 54.6083 123.763 54.5724 123.368 54.5775C122.553 54.5878 121.738 54.5621 120.923 54.5878C120.538 54.598 120.154 54.7109 119.769 54.757C119.508 54.7878 119.246 54.7878 118.98 54.7929C115.545 54.8493 112.106 54.9263 108.671 54.9519C107.482 54.9622 106.272 54.9981 105.114 54.7878C103.622 54.516 102.135 54.6647 100.654 54.557C99.9976 54.5108 99.3517 54.3724 98.6955 54.3006C98.2803 54.2544 97.86 54.2339 97.4447 54.239C95.9889 54.2544 94.5536 54.0339 93.108 53.8646C92.9337 53.8441 92.7594 53.8287 92.58 53.8133C90.7551 53.6954 88.9301 53.5826 87.1104 53.4697C86.5362 53.4338 85.9672 53.4236 85.3931 53.3825C82.9787 53.1979 80.554 53.0902 78.1549 52.7825C76.9451 52.6286 75.7405 52.6645 74.541 52.5517C74.1309 52.5107 73.7259 52.3773 73.3158 52.3414C72.7007 52.2901 72.0855 52.2594 71.4652 52.2696C70.2503 52.2953 69.0559 52.1055 67.8718 51.8798C67.7231 51.8491 67.5642 51.808 67.4156 51.8132C66.1084 51.885 64.832 51.6285 63.5453 51.4695C63.2839 51.4388 63.0173 51.4593 62.7507 51.4388C62.0279 51.3926 61.3051 51.4234 60.6029 51.1516C60.285 51.0285 59.9108 51.0285 59.5571 51.0336C58.537 51.049 57.5425 50.9259 56.548 50.7002C56.1021 50.6028 55.6253 50.6438 55.164 50.6233C54.6411 50.6028 54.1182 50.6387 53.6107 50.4079C53.3237 50.2797 52.9597 50.2797 52.6316 50.3002C51.632 50.3669 50.6734 50.1156 49.6943 50.0079C48.91 49.9207 48.1155 49.8181 47.326 49.8335C45.3422 49.8694 43.3635 49.9617 41.3797 50.054C40.6364 50.0899 39.8931 50.1925 39.1498 50.2541C38.4936 50.3053 37.8836 50.1464 37.33 49.8027C36.9404 49.5617 36.9045 49.3104 37.1762 48.9309C37.4376 48.5616 37.7196 48.2539 38.2424 48.2846C38.4424 48.2949 38.6525 48.1513 38.8627 48.0898C39.524 47.8846 40.1955 47.6949 40.8517 47.4794C42.41 46.9615 43.2866 45.7819 43.302 44.1099C43.3225 41.7097 43.3122 39.3043 43.3174 36.9041C43.3174 33.2884 43.3174 29.6778 43.3174 26.0621C43.3174 22.2054 43.3174 18.3486 43.3122 14.4919C43.3122 14.4252 43.3071 14.3585 43.302 14.2918C43.2148 12.5789 42.4921 11.8609 40.7953 11.5583C39.8828 11.3941 38.9191 11.307 38.104 10.7531C37.7503 10.512 37.6376 10.2864 37.7196 9.87094C37.7811 9.55296 38.0323 9.33755 38.4321 9.29653C38.7602 9.26062 39.0934 9.24524 39.4215 9.25037C41.7795 9.28114 44.1376 9.32217 46.4956 9.35807C46.5827 9.35807 46.6699 9.35807 46.7622 9.35807C46.7622 9.35294 46.7622 9.34781 46.7622 9.34268Z" fill="white"/>
<path d="M94.0717 27.3751C93.9641 28.2162 93.8462 29.1035 93.7334 29.9959C93.7232 30.0831 93.7027 30.1702 93.7078 30.2574C93.7847 31.2678 93.4617 32.2166 93.2003 33.1603C92.8158 34.545 92.375 35.9246 91.6214 37.1657C91.0319 38.1351 90.4321 39.1095 89.7606 40.0275C88.9045 41.1969 87.8639 42.2226 86.7259 43.0996C85.5213 44.0279 84.2346 44.8741 82.8095 45.4332C81.7586 45.8435 80.6463 46.0999 79.5544 46.3973C78.2728 46.7461 76.9708 46.6025 75.6995 46.8384C75.192 46.9307 74.6486 46.823 74.1206 46.7974C73.4389 46.7615 72.7519 46.7615 72.0804 46.6538C71.2859 46.5256 70.5067 46.3102 69.7224 46.1153C68.528 45.8178 67.4002 45.3357 66.3237 44.7459C65.9239 44.5254 65.5497 44.2536 65.1703 43.992C64.6013 43.592 63.981 43.2842 63.4736 42.7919C62.7866 42.1252 62.028 41.5302 61.2898 40.9097C60.4952 40.2378 59.957 39.3557 59.3316 38.5402C58.5422 37.5094 57.9732 36.3554 57.4605 35.1707C57.2709 34.7296 57.1581 34.2578 57.0094 33.8013C56.953 33.6372 56.912 33.4629 56.83 33.309C56.6506 32.9756 56.5173 32.632 56.543 32.2422C56.5481 32.1345 56.5481 32.0063 56.4968 31.9191C56.138 31.3345 56.261 30.6831 56.22 30.0523C56.1175 28.4009 56.22 26.7546 56.2354 25.1031C56.2354 24.7646 56.3789 24.4313 56.4507 24.0979C56.4814 23.9492 56.543 23.7953 56.5378 23.6466C56.5019 22.708 57.0094 21.9336 57.2504 21.0771C57.4862 20.2514 57.845 19.4821 58.1987 18.7077C58.3422 18.3948 58.455 18.0563 58.6447 17.7743C59.4751 16.5383 60.2543 15.2715 61.3359 14.2252C62.2228 13.3739 63.1865 12.6251 64.2271 11.9737C64.9499 11.5224 65.6573 11.0506 66.4057 10.6454C67.2413 10.1941 68.1333 9.87098 69.0508 9.61968C69.1329 9.59404 69.2456 9.61968 69.3071 9.56839C69.4507 9.46069 69.5788 9.32221 69.707 9.194C69.5891 9.08117 69.4917 8.92731 69.3533 8.86064C68.9842 8.676 68.5639 8.57343 68.2204 8.34777C67.6924 7.99389 67.19 7.57334 67.2362 6.83481C67.2669 6.31169 67.6411 6.045 68.1691 6.08603C68.8919 6.14244 69.5276 6.56299 70.2196 6.64505C71.1936 6.76301 72.0445 7.35794 73.0595 7.29639C73.6285 7.26049 74.2078 7.28101 74.7768 7.28101C75.3919 7.28101 76.0122 7.28101 76.6273 7.28101C77.1963 7.28101 77.7602 7.34255 78.2831 6.9938C78.5035 6.8502 78.8316 6.83994 79.1135 6.82455C79.4262 6.80917 79.7184 6.82455 79.9696 6.56812C80.0568 6.47581 80.2567 6.49632 80.4002 6.46042C80.6053 6.404 80.8206 6.3681 81.0051 6.27066C81.4972 6.0091 82.0303 6.06551 82.3789 6.44503C82.7377 6.83994 82.7634 7.43999 82.4814 7.90157C82.1841 8.3888 81.6356 8.50163 81.2307 8.81448C81.1794 8.85551 81.0974 8.85038 81.0512 8.89141C80.9487 8.98372 80.7539 9.13245 80.7796 9.18374C80.8411 9.32734 80.9692 9.4812 81.1076 9.53762C81.569 9.72738 82.0406 9.95817 82.5276 10.0248C83.2863 10.1274 83.8296 10.6249 84.4653 10.9377C84.9881 11.1993 85.47 11.5532 85.957 11.8814C87.0489 12.6097 88.11 13.3892 88.9968 14.3534C90.3296 15.8049 91.5086 17.3794 92.375 19.1641C92.58 19.5898 92.6928 20.0668 92.8415 20.5232C93.0773 21.2566 93.2977 21.99 93.5284 22.7234C93.5591 22.826 93.6155 22.9286 93.6258 23.0363C93.7744 24.4569 93.9179 25.8776 94.0717 27.3649V27.3751ZM74.7717 11.1121C74.0181 11.1788 73.0339 11.1583 72.1009 11.3839C71.4243 11.5481 70.722 11.6352 70.0556 11.9943C69.22 12.4404 68.3639 12.8046 67.5745 13.3739C66.8363 13.9072 66.1699 14.4868 65.6112 15.1945C64.8371 16.1741 64.0887 17.1691 63.5966 18.3333C63.3198 18.9949 63.0122 19.6411 62.761 20.3078C62.5355 20.913 62.3304 21.5387 62.1869 22.1695C62.0433 22.7901 61.987 23.4261 61.8947 24.0569C61.8332 24.4928 61.7358 24.9236 61.7153 25.3647C61.5922 27.529 61.787 29.6676 62.2074 31.7909C62.2997 32.2576 62.4278 32.7243 62.6021 33.1705C62.9097 33.9603 63.2685 34.7245 63.5915 35.5041C64.1707 36.8837 65.0012 38.1146 65.8982 39.2993C66.4109 39.9711 67.0926 40.5148 67.6565 41.1507C68.3793 41.9713 69.2866 42.5252 70.2145 43.074C71.2448 43.6791 72.4136 43.8894 73.5157 44.2997C73.6183 44.3356 73.731 44.3408 73.8387 44.351C75.0434 44.4844 76.2429 44.51 77.4578 44.4023C78.7188 44.2895 79.9235 43.9407 81.0615 43.4791C82.2456 43.0022 83.317 42.2893 84.25 41.3456C85.7314 39.8378 86.6593 38.0428 87.2949 36.0733C87.5205 35.381 87.8691 34.6937 87.7768 33.9193C87.7665 33.8372 87.8281 33.7552 87.8434 33.668C87.9306 33.2218 88.0434 32.7756 88.0997 32.3243C88.192 31.6063 88.2023 30.8729 88.3202 30.16C88.5201 28.9753 88.3766 27.7905 88.3407 26.611C88.3407 26.5443 88.3099 26.4827 88.3048 26.4161C88.2381 25.8314 88.1715 25.2416 88.11 24.6569C88.0741 24.3287 88.0844 23.9902 88.0126 23.6774C87.828 22.8978 87.6127 22.1285 87.3974 21.3592C87.2334 20.7694 87.095 20.1642 86.8541 19.6103C86.2646 18.2461 85.5982 16.9126 84.6498 15.7587C84.1064 15.0971 83.5989 14.374 82.9377 13.8611C82.2098 13.2969 81.5228 12.6148 80.5899 12.3327C80.2618 12.2353 79.9389 12.0917 79.6364 11.9224C78.9085 11.5275 78.0986 11.4198 77.304 11.2968C76.5453 11.1788 75.7661 11.1891 74.7819 11.1326L74.7717 11.1121Z" fill="white"/>
<path d="M143.498 9.42479C145.698 9.34786 147.902 9.27606 150.101 9.18887C151.598 9.12732 153.09 9.00936 154.586 8.98372C155.355 8.96833 156.124 9.08117 156.888 9.16323C158.241 9.31196 159.595 9.4812 160.948 9.64532C161.117 9.66583 161.281 9.74789 161.45 9.78892C161.871 9.89149 162.301 9.98381 162.722 10.0966C163.178 10.2197 163.655 10.312 164.08 10.5121C165.054 10.9634 166.018 11.4404 166.956 11.9686C167.561 12.3071 168.104 12.7533 168.673 13.1482C168.96 13.3482 169.309 13.4969 169.529 13.7534C170.401 14.7586 171.267 15.7792 172.077 16.8357C172.877 17.882 173.348 19.1231 173.933 20.2924C173.963 20.3488 174.015 20.4053 174.025 20.4668C174.153 21.1028 174.276 21.7438 174.404 22.3849C174.481 22.7696 174.563 23.1542 174.66 23.5337C174.958 24.6826 174.855 25.8519 174.886 27.0161C174.896 27.3905 174.896 27.7649 174.871 28.1393C174.814 28.8368 174.773 29.5445 174.65 30.2318C174.522 30.9601 174.276 31.6627 174.138 32.391C173.876 33.7449 173.164 34.8989 172.574 36.1092C172.015 37.2581 171.164 38.2017 170.442 39.2326C169.632 40.3865 168.535 41.202 167.499 42.0944C166.823 42.6739 166.069 43.1714 165.336 43.6843C164.259 44.4433 163.05 44.9562 161.84 45.4588C161.322 45.6742 160.743 45.7409 160.189 45.8691C159.764 45.9717 159.338 46.0742 158.913 46.1563C158.528 46.2281 158.139 46.2896 157.749 46.3255C157.18 46.382 156.606 46.4332 156.037 46.4384C155.314 46.4435 154.586 46.3922 153.864 46.3768C152.187 46.3461 150.516 46.3409 148.84 46.2948C147.856 46.264 146.871 46.1409 145.882 46.1204C144.693 46.0948 143.488 46.0178 142.314 46.1666C140.618 46.382 138.931 46.2743 137.239 46.3307C136.916 46.3409 136.624 46.2999 136.383 46.0691C136.122 45.8229 136.101 45.546 136.327 45.2485C136.558 44.9408 136.845 44.7613 137.255 44.7151C138.423 44.5921 139.521 44.192 140.5 43.5458C141.002 43.2176 141.248 42.6842 141.438 42.0944C141.699 41.2738 141.699 40.4481 141.699 39.6172C141.699 31.6832 141.699 23.7492 141.704 15.8151C141.704 15.0202 141.689 14.2252 141.397 13.4764C141.017 12.502 140.371 11.8199 139.305 11.5993C138.644 11.4609 137.988 11.2865 137.332 11.1172C137.162 11.0711 137.004 10.989 136.85 10.8967C136.511 10.6967 136.132 10.5069 136.188 10.0146C136.229 9.68122 136.716 9.33247 137.209 9.32734C138.311 9.31196 139.413 9.3376 140.515 9.34273C141.504 9.34273 142.499 9.34273 143.488 9.34273C143.488 9.3735 143.488 9.39914 143.488 9.42992L143.498 9.42479ZM146.487 26.8469C146.487 31.2524 146.487 35.663 146.487 40.0686C146.487 41.5046 147.215 42.5406 148.445 43.1663C149.255 43.5766 150.127 43.9048 151.07 43.9048C151.198 43.9048 151.326 43.9612 151.454 43.9817C152.259 44.0997 153.059 44.2382 153.864 44.3305C155.422 44.5049 156.919 44.0638 158.436 43.8433C158.903 43.7766 159.384 43.6535 159.805 43.4484C160.722 43.0022 161.681 42.6483 162.542 42.0482C163.28 41.5354 163.947 40.9456 164.608 40.366C165.592 39.4942 166.325 38.3864 167.028 37.2837C167.458 36.6067 167.817 35.8733 168.119 35.1245C168.401 34.4168 168.591 33.668 168.771 32.9243C168.976 32.073 169.247 31.2062 169.278 30.3446C169.355 27.9957 169.534 25.6314 168.935 23.3132C168.765 22.6567 168.586 21.9951 168.396 21.3438C168.299 21.0104 168.217 20.6566 168.048 20.3591C167.458 19.318 166.905 18.2615 166.187 17.2819C165.121 15.8202 163.783 14.6868 162.378 13.5995C161.948 13.2662 161.481 12.9584 160.989 12.7225C160.01 12.2558 159.031 11.8045 157.97 11.5224C156.903 11.2352 155.827 11.0352 154.73 10.9583C152.679 10.8095 150.634 10.9993 148.604 11.2916C147.533 11.4455 146.431 12.3379 146.451 13.7739C146.513 18.1384 146.472 22.5029 146.472 26.8623L146.487 26.8469Z" fill="white"/>
<path d="M102.673 9.37859C105.052 9.2914 107.431 9.16831 109.809 9.13754C111.06 9.12215 112.331 9.15292 113.561 9.3632C114.428 9.51193 115.32 9.66066 116.176 9.98377C116.781 10.2094 117.421 10.3633 117.975 10.7018C119.103 11.3839 120.154 12.1378 120.933 13.2559C121.353 13.8559 121.738 14.4919 121.922 15.1637C122.122 15.9125 122.471 16.6459 122.409 17.4614C122.368 18.0306 122.404 18.6051 122.399 19.1795C122.399 19.6359 122.358 20.0667 122.168 20.5181C121.979 20.9694 121.892 21.4669 121.692 21.9336C121.107 23.3029 120.246 24.4312 119.149 25.4467C118.483 26.0621 117.76 26.5647 117.022 27.0674C116.863 27.1751 116.683 27.2622 116.519 27.3597C116.335 27.4725 116.13 27.57 115.966 27.7084C115.632 27.9956 115.591 28.1803 115.822 28.5701C116.191 29.1906 116.576 29.8009 116.986 30.3959C118.114 32.0319 119.257 33.6628 120.405 35.2886C120.605 35.5758 120.861 35.822 121.087 36.0887C121.579 36.6734 122.081 37.2529 122.563 37.8478C123.64 39.171 124.819 40.4019 126.069 41.5558C126.31 41.7764 126.577 41.9764 126.782 42.2277C127.638 43.2739 128.776 43.8689 130.063 44.1356C131.047 44.3407 132.067 44.3869 133.072 44.5151C133.395 44.5561 133.733 44.5971 134.035 44.7151C134.476 44.8895 134.584 45.1921 134.399 45.6229C134.174 46.146 133.8 46.4794 133.241 46.6999C132.282 47.0845 131.262 47.1102 130.278 47.2948C129.632 47.4128 128.93 47.2333 128.253 47.1769C128.058 47.1615 127.864 47.0743 127.674 47.0794C127.115 47.0845 126.608 46.9512 126.069 46.7871C125.372 46.5717 124.762 46.2127 124.106 45.9357C123.25 45.5716 122.696 44.9049 122.117 44.2689C121.102 43.1509 120.128 42.002 119.175 40.8327C118.524 40.0378 117.924 39.2069 117.329 38.3761C116.591 37.3503 115.868 36.3143 115.156 35.2681C114.823 34.7809 114.52 34.2731 114.233 33.7603C113.726 32.8628 113.172 32.0063 112.388 31.319C111.757 30.7651 111.06 30.3394 110.265 30.0728C109.958 29.9702 109.63 29.8933 109.353 29.7291C108.589 29.2829 107.738 29.3599 106.918 29.2829C106.113 29.2111 105.867 29.4214 105.862 30.2317C105.852 31.9704 105.857 33.7141 105.862 35.4527C105.862 37.0836 105.872 38.7146 105.872 40.3455C105.872 40.7506 106 41.1096 106.134 41.484C106.344 42.0687 106.595 42.6123 106.954 43.1098C107.2 43.4534 107.492 43.715 107.902 43.8689C108.435 44.0689 108.938 44.3407 109.471 44.5407C109.753 44.6484 110.071 44.6587 110.368 44.7356C110.593 44.7972 110.824 44.8638 111.024 44.9818C111.301 45.1459 111.506 45.4023 111.398 45.7511C111.291 46.0998 110.993 46.2537 110.65 46.3152C110.522 46.3358 110.388 46.3204 110.255 46.3204C109.701 46.3204 109.148 46.2845 108.604 46.3255C107.712 46.4024 106.862 46.1511 105.99 46.0793C105.554 46.0434 105.124 45.9562 104.688 45.9049C104.514 45.8844 104.334 45.8844 104.16 45.9049C103.704 45.9511 103.248 46.028 102.786 46.0588C100.659 46.1922 98.5315 46.4076 96.3939 46.3255C96.0504 46.3101 95.7377 46.2742 95.4968 46.0075C95.2712 45.7562 95.261 45.4639 95.5071 45.2485C95.7992 44.9869 96.0966 44.7459 96.5323 44.71C97.778 44.6074 98.916 44.1509 99.9617 43.5047C100.731 43.0278 101.12 42.2687 101.197 41.3763C101.248 40.7199 101.243 40.0531 101.243 39.3967C101.243 31.837 101.243 24.2774 101.243 16.7177C101.243 16.0561 101.274 15.3894 101.192 14.738C101.033 13.4764 100.51 12.3737 99.403 11.6814C98.9929 11.4249 98.4444 11.3993 97.9676 11.2403C97.4704 11.0813 96.9731 10.9121 96.4913 10.7069C96.2298 10.5941 96.0043 10.3735 96.0197 10.0556C96.0351 9.72221 96.2965 9.56835 96.5784 9.49142C96.8911 9.40936 97.2141 9.31704 97.537 9.31191C99.2543 9.29653 100.977 9.30166 102.694 9.30166C102.694 9.32217 102.694 9.34781 102.694 9.36833L102.673 9.37859ZM105.806 21.8156C105.806 21.8156 105.831 21.8156 105.841 21.8156C105.841 22.7182 105.841 23.6209 105.841 24.5235C105.841 24.9441 105.821 25.3595 105.852 25.7801C105.923 26.7289 106.585 27.3494 107.533 27.3546C108.476 27.3546 109.43 27.3905 110.368 27.3187C110.947 27.2776 111.557 27.1545 112.075 26.9135C113.428 26.2827 114.638 25.4313 115.499 24.1645C115.827 23.6773 116.222 23.2003 116.407 22.6618C116.704 21.8053 117.083 20.9437 116.996 19.9898C116.986 19.8821 117.047 19.7744 117.042 19.6616C116.996 18.4768 116.94 17.2921 116.888 16.1074C116.888 16.0869 116.873 16.0664 116.863 16.0459C116.637 15.4766 116.432 14.9022 116.186 14.3483C115.474 12.743 114.264 11.6762 112.557 11.3018C111.009 10.9633 109.44 10.7941 107.846 11.189C106.969 11.4095 106.544 12.025 106.323 12.743C106.098 13.4866 106.057 14.3021 106.021 15.0868C105.923 17.328 105.867 19.5744 105.795 21.8156H105.806Z" fill="white"/>
<path d="M187.399 47.0333C186.394 47.0948 185.302 46.9871 184.221 46.7307C183.775 46.623 183.303 46.6435 182.847 46.5717C182.524 46.5204 182.196 46.4537 181.899 46.3255C181.022 45.9563 180.002 45.8639 179.325 45.0998C178.802 44.51 178.387 43.8535 178.346 43.0278C178.341 42.9201 178.346 42.7867 178.295 42.7047C177.946 42.2123 178.039 41.6533 178.018 41.1097C177.992 40.3609 177.936 39.6172 177.936 38.8684C177.936 38.3658 177.977 37.853 178.064 37.3555C178.131 36.9708 178.433 36.7093 178.787 36.5657C179.033 36.4682 179.315 36.4528 179.489 36.74C179.658 37.017 179.848 37.2837 179.971 37.576C180.217 38.1761 180.427 38.7864 180.653 39.3967C180.802 39.8019 180.955 40.2122 181.109 40.6173C181.612 41.9405 182.432 43.0175 183.642 43.7612C184.159 44.0843 184.739 44.31 185.292 44.5715C185.431 44.6382 185.584 44.6843 185.733 44.6946C186.697 44.7664 187.666 44.8638 188.629 44.8741C189.239 44.8844 189.885 44.8587 190.454 44.6741C191.069 44.4741 191.659 44.1356 192.182 43.7458C192.664 43.3817 193.094 42.915 193.448 42.4226C193.74 42.0072 193.899 41.4943 194.099 41.0174C194.201 40.7763 194.227 40.5045 194.345 40.2737C194.524 39.9044 194.591 39.53 194.581 39.1249C194.56 38.3607 194.514 37.6529 194.186 36.9042C193.827 36.0887 193.52 35.2681 193.022 34.5142C192.366 33.5141 191.526 32.6935 190.675 31.8781C190.357 31.5755 190.024 31.2883 189.706 30.9908C188.855 30.1959 187.86 29.5907 186.938 28.8932C185.513 27.8162 183.949 26.9186 182.703 25.6108C182.191 25.0775 181.647 24.5748 181.119 24.0517C180.376 23.3132 179.899 22.4054 179.546 21.431C179.341 20.8566 179.095 20.3027 179.105 19.6616C179.105 19.2615 178.864 18.8615 178.854 18.4615C178.782 16.1177 179.541 14.0765 181.201 12.4045C181.801 11.7993 182.442 11.2249 183.114 10.6967C183.462 10.4197 183.908 10.271 184.313 10.071C184.667 9.90173 185.015 9.72223 185.379 9.58375C185.948 9.37348 186.533 9.18884 187.112 9.00421C187.302 8.94267 187.496 8.90164 187.691 8.88625C189.27 8.75291 190.844 8.67085 192.438 8.82984C193.545 8.94267 194.591 9.19397 195.637 9.53246C196.032 9.66068 196.447 9.72735 196.852 9.81454C197.344 9.92224 197.61 10.1889 197.754 10.7121C198.241 12.4558 198.446 14.2355 198.523 16.0356C198.543 16.4715 198.405 16.8459 198.138 17.1947C197.979 17.3998 197.785 17.487 197.564 17.4204C196.872 17.2152 196.283 16.9639 196.057 16.1587C195.867 15.4868 195.734 14.7893 195.442 14.1688C194.735 12.661 193.617 11.6198 191.956 11.1224C190.798 10.7736 189.66 10.7428 188.496 10.8557C187.061 10.989 185.902 11.6865 184.903 12.702C183.344 14.2816 183.165 16.1843 183.621 18.205C183.739 18.7333 184.082 19.241 184.41 19.6924C185.123 20.6719 186.041 21.4566 187.02 22.1644C187.163 22.2669 187.307 22.3695 187.43 22.4926C188.547 23.5901 189.921 24.3338 191.213 25.1852C192.771 26.2109 194.212 27.3648 195.519 28.6829C196.226 29.3958 196.929 30.1394 197.451 30.9857C198.051 31.955 198.748 32.9192 198.892 34.1142C198.907 34.2424 199 34.3552 199.025 34.4834C199.128 34.9963 199.266 35.5092 199.302 36.0323C199.348 36.7349 199.328 37.4427 199.302 38.1453C199.292 38.494 199.23 38.8428 199.148 39.1813C198.866 40.3609 198.343 41.4379 197.687 42.4482C197.451 42.8124 197.118 43.1098 196.847 43.4535C195.775 44.7869 194.381 45.6691 192.807 46.2589C192.161 46.4999 191.444 46.5461 190.762 46.6794C190.654 46.6999 190.536 46.6794 190.434 46.7204C189.48 47.0948 188.486 47.0487 187.394 47.0333H187.399Z" fill="white"/>
<path d="M74.9664 6.79376C74.1975 6.79376 73.4286 6.79889 72.6596 6.79376C72.2444 6.79376 71.8394 6.79376 71.455 6.54758C71.2909 6.43988 71.0295 6.48091 70.8142 6.45527C70.158 6.38347 69.7428 5.97318 69.7121 5.31671C69.6762 4.59869 69.6198 3.87042 69.6762 3.15241C69.7172 2.66006 69.8761 2.15745 70.0863 1.71125C70.2349 1.38815 70.5118 1.10094 70.7937 0.87528C71.5626 0.270098 72.4853 0.080337 73.4337 0.0239217C74.705 -0.058137 75.9711 0.0854656 77.2322 0.234197C77.7909 0.30087 78.3856 0.393185 78.8726 0.64449C79.5902 1.01375 80.0567 1.65997 80.1797 2.50107C80.3181 3.46013 80.2515 4.42432 80.2207 5.38338C80.2002 6.11165 79.9132 6.41937 79.1853 6.46553C78.811 6.49117 78.4471 6.49117 78.119 6.72709C78.0114 6.80402 77.8217 6.7835 77.6679 6.7835C76.7657 6.7835 75.8635 6.7835 74.9664 6.7835C74.9664 6.7835 74.9664 6.78863 74.9664 6.79376Z" fill="white"/>
<path d="M45.736 87.32C44.136 87.32 42.6427 87.0213 41.256 86.424C39.8693 85.8267 38.6533 85.0053 37.608 83.96C36.5627 82.8933 35.7413 81.6667 35.144 80.28C34.568 78.872 34.28 77.368 34.28 75.768C34.28 74.168 34.568 72.6747 35.144 71.288C35.7413 69.9013 36.552 68.6853 37.576 67.64C38.6213 66.5733 39.8267 65.752 41.192 65.176C42.5787 64.5787 44.072 64.28 45.672 64.28C47.272 64.28 48.7547 64.5787 50.12 65.176C51.5067 65.752 52.7227 66.5733 53.768 67.64C54.8133 68.6853 55.624 69.912 56.2 71.32C56.7973 72.7067 57.096 74.2 57.096 75.8C57.096 77.4 56.7973 78.904 56.2 80.312C55.624 81.6987 54.8133 82.9147 53.768 83.96C52.744 85.0053 51.5387 85.8267 50.152 86.424C48.7867 87.0213 47.3147 87.32 45.736 87.32ZM45.672 83.8C47.1867 83.8 48.5093 83.4587 49.64 82.776C50.792 82.0933 51.688 81.1547 52.328 79.96C52.9893 78.744 53.32 77.3467 53.32 75.768C53.32 74.5947 53.128 73.528 52.744 72.568C52.3813 71.5867 51.8587 70.744 51.176 70.04C50.4933 69.3147 49.6827 68.76 48.744 68.376C47.8267 67.992 46.8027 67.8 45.672 67.8C44.1787 67.8 42.856 68.1413 41.704 68.824C40.5733 69.4853 39.6773 70.4133 39.016 71.608C38.376 72.8027 38.056 74.1893 38.056 75.768C38.056 76.9413 38.2373 78.0293 38.6 79.032C38.984 80.0133 39.5067 80.856 40.168 81.56C40.8507 82.264 41.6613 82.8187 42.6 83.224C43.5387 83.608 44.5627 83.8 45.672 83.8ZM73.6383 87.32C71.9529 87.32 70.4383 86.936 69.0943 86.168C67.7503 85.4 66.6836 84.3547 65.8942 83.032C65.1262 81.688 64.7422 80.1733 64.7422 78.488V64.6H68.4223V78.456C68.4223 79.544 68.6463 80.4933 69.0943 81.304C69.5636 82.0933 70.1929 82.712 70.9823 83.16C71.7716 83.5867 72.6569 83.8 73.6383 83.8C74.6409 83.8 75.5263 83.5867 76.2943 83.16C77.0623 82.712 77.6703 82.0933 78.1183 81.304C78.5663 80.4933 78.7903 79.5547 78.7903 78.488V64.6H82.4703V78.52C82.4703 80.2053 82.0863 81.7093 81.3183 83.032C80.5503 84.3547 79.5049 85.4 78.1823 86.168C76.8596 86.936 75.3449 87.32 73.6383 87.32ZM93.78 77.496V74.456H99.444C100.575 74.456 101.449 74.168 102.068 73.592C102.708 72.9947 103.028 72.1733 103.028 71.128C103.028 70.1893 102.719 69.4 102.1 68.76C101.481 68.12 100.607 67.8 99.476 67.8H93.78V64.6H99.636C101.044 64.6 102.281 64.888 103.348 65.464C104.415 66.0187 105.236 66.7867 105.812 67.768C106.409 68.728 106.708 69.8267 106.708 71.064C106.708 72.3653 106.409 73.496 105.812 74.456C105.236 75.416 104.415 76.1627 103.348 76.696C102.281 77.2293 101.044 77.496 99.636 77.496H93.78ZM91.252 87V64.6H94.932V87H91.252ZM103.54 87L95.7 77.272L99.124 76.024L108.18 87H103.54ZM119.606 87V65.24H123.286V87H119.606ZM112.31 67.96V64.6H130.582V67.96H112.31ZM143.549 78.04L134.813 64.6H139.069L145.885 75.32H143.901L150.717 64.6H154.909L146.109 78.04H143.549ZM143.037 87V75.736H146.717V87H143.037ZM157.256 87L166.472 64.6H169.032L178.184 87H174.216L167.048 68.856H168.392L161.16 87H157.256ZM161.8 82.68V79.48H173.672V82.68H161.8ZM187.826 77.496V74.456H193.49C194.621 74.456 195.496 74.168 196.114 73.592C196.754 72.9947 197.074 72.1733 197.074 71.128C197.074 70.1893 196.765 69.4 196.146 68.76C195.528 68.12 194.653 67.8 193.522 67.8H187.826V64.6H193.682C195.09 64.6 196.328 64.888 197.394 65.464C198.461 66.0187 199.282 66.7867 199.858 67.768C200.456 68.728 200.754 69.8267 200.754 71.064C200.754 72.3653 200.456 73.496 199.858 74.456C199.282 75.416 198.461 76.1627 197.394 76.696C196.328 77.2293 195.09 77.496 193.682 77.496H187.826ZM185.298 87V64.6H188.978V87H185.298ZM197.586 87L189.746 77.272L193.17 76.024L202.226 87H197.586Z" fill="white"/>
<path d="M16.6455 89C14.2564 89 12.0401 88.575 9.99675 87.725C7.98482 86.8435 6.22439 85.6315 4.71545 84.0889C3.2065 82.5148 2.04336 80.7046 1.22602 78.6583C0.408672 76.5806 0 74.3611 0 72C0 69.6389 0.408672 67.4352 1.22602 65.3889C2.04336 63.3111 3.2065 61.5009 4.71545 59.9583C6.22439 58.4157 7.98482 57.2037 9.99675 56.3222C12.0401 55.4407 14.2564 55 16.6455 55C19.3176 55 21.6282 55.4407 23.5772 56.3222C25.5263 57.2037 27.2553 58.4 28.7642 59.9111L25.0862 63.5944C24.1117 62.5241 22.9171 61.6898 21.5024 61.0917C20.1192 60.4935 18.5003 60.1944 16.6455 60.1944C15.0108 60.1944 13.5176 60.4778 12.1659 61.0444C10.8141 61.6111 9.63523 62.4296 8.62927 63.5C7.65474 64.5389 6.90027 65.7824 6.36585 67.2306C5.83144 68.6787 5.56423 70.2685 5.56423 72C5.56423 73.7315 5.83144 75.3213 6.36585 76.7694C6.90027 78.2176 7.65474 79.4769 8.62927 80.5472C9.63523 81.5861 10.8141 82.3889 12.1659 82.9556C13.5176 83.5222 15.0108 83.8056 16.6455 83.8056C18.6575 83.8056 20.355 83.5065 21.7382 82.9083C23.1528 82.2787 24.3474 81.4287 25.322 80.3583L29 84.0417C27.4911 85.5843 25.7149 86.7963 23.6715 87.6778C21.6282 88.5593 19.2862 89 16.6455 89Z" fill="white"/>
<path d="M214.804 87V82.2H223.665C225.976 82.2 227.998 81.7276 229.732 80.7829C231.498 79.8381 232.862 78.5276 233.825 76.8514C234.82 75.1448 235.318 73.179 235.318 70.9543C235.318 68.76 234.82 66.8248 233.825 65.1486C232.83 63.4724 231.449 62.1619 229.684 61.2171C227.95 60.2724 225.944 59.8 223.665 59.8H214.804V55H223.809C226.249 55 228.512 55.4114 230.599 56.2343C232.685 57.0267 234.499 58.1543 236.04 59.6171C237.613 61.0495 238.833 62.741 239.7 64.6914C240.567 66.6114 241 68.7143 241 71C241 73.2552 240.567 75.3581 239.7 77.3086C238.833 79.259 237.629 80.9657 236.088 82.4286C234.547 83.861 232.734 84.9886 230.647 85.8114C228.56 86.6038 226.313 87 223.905 87H214.804ZM211 87V55H216.538V87H211Z" fill="white"/>
</svg>
