<svg width="63" height="53" viewBox="0 0 63 53" fill="none" xmlns="http://www.w3.org/2000/svg">
<path d="M24.8392 4.54335L11.0392 33.0433L6.83918 33.6434C7.23919 32.2433 8.03919 31.1433 9.23919 30.3433C10.4392 29.3433 12.0392 28.8433 14.0392 28.8433C17.0392 28.8433 19.6392 29.9433 21.8392 32.1434C24.2392 34.1434 25.4392 36.8434 25.4392 40.2434C25.4392 43.6434 24.1392 46.5433 21.5392 48.9434C19.1392 51.3433 16.2392 52.5433 12.8392 52.5433C9.63919 52.5433 6.83919 51.3433 4.43919 48.9434C2.03919 46.5433 0.839186 43.6434 0.839186 40.2434C0.839186 38.8434 1.03919 37.2434 1.43919 35.4433C1.83919 33.4434 2.73919 30.8433 4.13919 27.6433L17.6392 0.64335L24.8392 4.54335ZM62.0392 4.54335L48.2392 33.0433L44.0392 33.6434C44.4392 32.2433 45.2392 31.1433 46.4392 30.3433C47.6392 29.3433 49.2392 28.8433 51.2392 28.8433C54.2392 28.8433 56.8392 29.9433 59.0392 32.1434C61.4392 34.1434 62.6392 36.8434 62.6392 40.2434C62.6392 43.6434 61.3392 46.5433 58.7392 48.9434C56.3392 51.3433 53.4392 52.5433 50.0392 52.5433C46.8392 52.5433 44.0392 51.3433 41.6392 48.9434C39.2392 46.5433 38.0392 43.6434 38.0392 40.2434C38.0392 38.8434 38.2392 37.2434 38.6392 35.4433C39.0392 33.4434 39.9392 30.8433 41.3392 27.6433L54.8392 0.64335L62.0392 4.54335Z" fill="#405773"/>
</svg>
