<svg width="45" height="46" viewBox="0 0 45 46" fill="none" xmlns="http://www.w3.org/2000/svg">
<circle cx="22.5" cy="23" r="22" fill="white" stroke="#405773"/>
<path d="M18.3481 18.7575C18.8119 18.4476 19.1473 18.2401 18.8454 17.3397C18.5434 16.4393 18.3123 15.6472 17.5831 16.7421C16.5125 18.3505 18.6158 21.3861 20.5882 23.1093C22.5605 24.8324 25.8822 26.5363 27.3323 25.2595C28.3193 24.3898 27.5034 24.2672 26.5707 24.0889C25.6379 23.9105 25.4772 24.2708 25.2325 24.772M34.2858 20.857C34.2858 27.3661 29.0091 32.6427 22.5001 32.6427C20.3534 32.6427 18.3407 32.0688 16.6072 31.066L10.7144 32.6427L12.513 27.1179C11.3734 25.3039 10.7144 23.1574 10.7144 20.857C10.7144 14.3479 15.991 9.07129 22.5001 9.07129C29.0091 9.07129 34.2858 14.3479 34.2858 20.857Z" stroke="#405773" stroke-width="3" stroke-linecap="round" stroke-linejoin="round"/>
</svg>
