<svg width="45" height="45" viewBox="0 0 45 45" fill="none" xmlns="http://www.w3.org/2000/svg">
<circle cx="22.5" cy="22.5" r="22" fill="#405773" stroke="#405773"/>
<path d="M18.6337 19.6862C19.0975 19.3763 19.433 19.1688 19.131 18.2684C18.829 17.368 18.598 16.576 17.8688 17.6708C16.7981 19.2792 18.9015 22.3148 20.8738 24.038C22.8462 25.7611 26.1679 27.465 27.618 26.1882C28.605 25.3186 27.7891 25.196 26.8563 25.0176C25.9235 24.8392 25.7629 25.1995 25.5181 25.7007M34.5714 21.7857C34.5714 28.2948 29.2948 33.5714 22.7857 33.5714C20.639 33.5714 18.6264 32.9975 16.8929 31.9947L11 33.5714L12.7987 28.0466C11.6591 26.2326 11 24.0861 11 21.7857C11 15.2766 16.2766 10 22.7857 10C29.2948 10 34.5714 15.2766 34.5714 21.7857Z" stroke="#FBFBFD" stroke-width="3" stroke-linecap="round" stroke-linejoin="round"/>
</svg>
